<?xml version="1.0" encoding="UTF-8"?>
<svg width="3612px" height="726px" viewBox="0 0 3612 726" version="1.1" xmlns="http://www.w3.org/2000/svg" xmlns:xlink="http://www.w3.org/1999/xlink">
    <title>Group 5</title>
    <g id="Page-1" stroke="none" stroke-width="1" fill="none" fill-rule="evenodd">
        <g id="Group-5" transform="translate(0.107775, 0.607775)" fill-rule="nonzero">
            <path d="M992.818186,536.392225 C1009.35739,536.392225 1024.49157,533.06164 1038.22072,526.400471 C1051.94986,519.739301 1063.63168,510.309332 1073.26617,498.110563 C1082.90066,485.911794 1090.24696,471.506012 1095.30507,454.893215 C1100.36317,438.280418 1102.89223,420.022392 1102.89223,400.119138 C1102.89223,373.153439 1098.35599,349.839345 1089.28351,330.176856 C1080.21103,310.514367 1067.44533,295.506671 1050.98641,285.153769 C1034.5275,274.800867 1015.37895,269.624415 993.540773,269.624415 C974.592944,269.624415 958.696037,273.035255 945.850051,279.856935 C933.004065,286.678615 920.398942,296.509859 908.034681,309.350669 L908.034681,309.350669 L908.034681,208.951592 C908.034681,196.913334 905.304909,187.643874 899.845365,181.143215 C894.385821,174.642555 886.597942,171.392225 876.481729,171.392225 C866.847239,171.392225 859.340367,174.803065 853.96111,181.624745 C848.581854,188.446425 845.892225,198.518435 845.892225,211.840774 L845.892225,211.840774 L845.892225,498.832859 C845.892225,511.192137 848.662141,520.541852 854.201972,526.882001 C859.741804,533.222151 867.168389,536.392225 876.481729,536.392225 C885.634493,536.392225 893.18151,533.222151 899.122778,526.882001 C905.064047,520.541852 908.034681,511.192137 908.034681,498.832859 L908.034681,498.832859 L908.034681,492.332199 C915.260548,500.678725 921.081385,506.938619 925.497193,511.111882 C929.913,515.285145 935.252113,519.338026 941.514531,523.270524 C947.776949,527.203021 955.364109,530.373096 964.276012,532.780748 C973.187914,535.1884 982.701972,536.392225 992.818186,536.392225 Z M977.064639,485.392225 C957.593375,485.392225 941.86349,478.383832 929.874984,464.367046 C917.886478,450.350259 911.892225,430.28623 911.892225,404.174959 C911.892225,386.393664 914.708317,371.055295 920.340501,358.159851 C925.972685,345.264408 933.696823,335.412609 943.512915,328.604456 C953.329007,321.796302 964.512915,318.392225 977.064639,318.392225 C989.294524,318.392225 999.995674,321.796302 1009.16809,328.604456 C1018.3405,335.412609 1025.42096,345.064168 1030.40947,357.559132 C1035.39797,370.054096 1037.89223,384.951938 1037.89223,402.252657 C1037.89223,429.004695 1031.89797,449.5493 1019.90947,463.88647 C1007.92096,478.22364 993.639352,485.392225 977.064639,485.392225 Z M1278.09743,537.392225 C1296.63628,537.392225 1313.03914,534.982153 1327.306,530.16201 C1341.57286,525.341866 1353.42161,519.276518 1362.85224,511.965966 C1372.28288,504.655415 1379.33571,497.02352 1384.01072,489.070283 C1388.68574,481.117046 1391.02325,474.168005 1391.02325,468.223161 C1391.02325,461.474959 1388.92755,456.253137 1384.73616,452.557693 C1380.54476,448.862249 1375.06371,447.014528 1368.293,447.014528 C1362.00591,447.014528 1357.16968,448.460571 1353.78433,451.352657 C1345.56275,459.064887 1338.87264,465.170403 1333.714,469.669204 C1328.55536,474.168005 1322.9131,478.385631 1316.78722,482.322081 C1310.66133,486.258532 1304.33394,489.150619 1297.80504,490.99834 C1291.27614,492.846062 1284.0621,493.769923 1276.16294,493.769923 C1264.39479,493.769923 1253.6342,490.877837 1243.88115,485.093664 C1234.1281,479.309492 1226.30953,470.713568 1220.42546,459.305894 C1214.54139,447.898221 1211.51875,434.723161 1211.35754,419.780715 L1211.35754,419.780715 L1340.48471,419.780715 C1357.73391,419.780715 1371.11413,417.330475 1380.62537,412.429995 C1390.13661,407.529516 1394.89223,396.804695 1394.89223,380.255535 C1394.89223,362.421002 1390.29781,344.907813 1381.10899,327.715966 C1371.92016,310.52412 1358.09662,296.505535 1339.63837,285.660211 C1321.18012,274.814887 1299.0544,269.392225 1273.2612,269.392225 C1253.43269,269.392225 1235.37745,272.565487 1219.0955,278.91201 C1202.81355,285.258532 1189.11092,294.376638 1177.9876,306.266326 C1166.86429,318.156014 1158.4009,332.415607 1152.59743,349.045103 C1146.79396,365.674599 1143.89223,383.709971 1143.89223,403.151218 C1143.89223,444.443784 1155.66037,477.140427 1179.19666,501.241146 C1202.73294,525.341866 1235.69987,537.392225 1278.09743,537.392225 Z M1330.89223,381.392225 L1210.89223,381.392225 C1213.15485,359.299035 1219.57909,342.609071 1230.16495,331.322333 C1240.75081,320.035595 1254.28616,314.392225 1270.77101,314.392225 C1288.06394,314.392225 1302.00334,319.955547 1312.5892,331.08219 C1323.17505,342.208832 1329.27606,358.978844 1330.89223,381.392225 L1330.89223,381.392225 Z M1649.42563,537.392225 C1659.04536,537.392225 1666.86139,534.012045 1672.87373,527.251685 C1678.88606,520.491324 1681.89223,510.511745 1681.89223,497.312946 L1681.89223,497.312946 L1681.89223,374.660694 C1681.89223,360.174207 1681.25091,348.263096 1679.96828,338.92736 C1678.68565,329.591625 1675.87989,320.899733 1671.55101,312.851685 C1664.8172,299.009042 1654.63632,288.305138 1641.00836,280.739973 C1627.38041,273.174808 1611.90867,269.392225 1594.59315,269.392225 C1576.79664,269.392225 1561.04433,272.973607 1547.33621,280.13637 C1533.62809,287.299132 1521.00219,298.526159 1509.45852,313.817451 L1509.45852,313.817451 L1509.45852,305.849883 C1509.45852,297.962796 1508.05564,291.282916 1505.24988,285.810243 C1502.44413,280.337571 1498.71648,276.233066 1494.06694,273.49673 C1489.41741,270.760394 1484.20672,269.392225 1478.43488,269.392225 C1468.97547,269.392225 1461.52018,272.490724 1456.069,278.687721 C1450.61782,284.884718 1447.89223,294.260694 1447.89223,306.815649 L1447.89223,306.815649 L1447.89223,497.312946 C1447.89223,510.189823 1450.93847,520.088922 1457.03097,527.010243 C1463.12347,533.931565 1470.89942,537.392225 1480.35882,537.392225 C1490.13889,537.392225 1498.11525,534.052285 1504.28791,527.372406 C1510.46057,520.692526 1513.5469,510.672706 1513.5469,497.312946 L1513.5469,497.312946 L1513.5469,414.739973 C1513.5469,387.859493 1515.15019,369.509943 1518.35677,359.691324 C1522.84598,347.458291 1529.90045,337.840874 1539.52018,330.839072 C1549.13991,323.83727 1559.80178,320.33637 1571.50579,320.33637 C1589.46263,320.33637 1601.44721,326.090724 1607.45954,337.599433 C1613.47188,349.108141 1616.47804,365.72736 1616.47804,387.45709 L1616.47804,387.45709 L1616.47804,497.312946 C1616.47804,510.189823 1619.52429,520.088922 1625.61679,527.010243 C1631.70929,533.931565 1639.64557,537.392225 1649.42563,537.392225 Z M1863.93874,537.392225 C1883.00334,537.392225 1900.14546,534.81685 1915.36509,529.666099 C1930.58473,524.515348 1943.20101,517.714748 1953.21393,509.264297 C1963.22685,500.813847 1970.67646,491.920754 1975.56277,482.585018 C1980.44907,473.249282 1982.89223,464.47691 1982.89223,456.267901 C1982.89223,449.34658 1980.24881,442.827661 1974.96199,436.711144 C1969.67517,430.594628 1963.02659,427.53637 1955.01626,427.53637 C1948.28757,427.53637 1942.60024,429.628862 1937.95424,433.813847 C1933.30825,437.998832 1928.98266,443.793427 1924.9775,451.197631 C1917.76819,463.752586 1909.4775,473.088321 1900.1054,479.204838 C1890.73331,485.321354 1879.47879,488.379613 1866.34184,488.379613 C1856.56923,488.379613 1847.59765,486.488321 1839.42711,482.705739 C1831.25657,478.923156 1824.28757,473.370003 1818.52013,466.046279 C1812.75269,458.722556 1808.34701,449.869703 1805.30308,439.487721 C1802.25915,429.105739 1800.73719,417.717751 1800.73719,405.323757 C1800.73719,378.926159 1806.66484,358.121955 1818.52013,342.911144 C1830.37543,327.700333 1845.99558,320.094928 1865.3806,320.094928 C1878.83796,320.094928 1889.93228,323.153186 1898.66354,329.269703 C1907.39481,335.386219 1915.76561,344.560994 1923.77595,356.794027 C1928.26173,363.071505 1932.30695,367.618652 1935.91161,370.435469 C1939.51626,373.252285 1944.0421,374.660694 1949.48912,374.660694 C1957.81987,374.660694 1964.90902,371.924357 1970.75657,366.451685 C1976.60411,360.979012 1979.52788,354.299132 1979.52788,346.412045 C1979.52788,338.685919 1976.92453,330.356189 1971.71781,321.422856 C1966.51109,312.489523 1958.98137,304.079312 1949.12866,296.192225 C1939.27595,288.305138 1927.26044,281.8667 1913.08215,276.87691 C1898.90385,271.88712 1883.32375,269.392225 1866.34184,269.392225 C1838.94649,269.392225 1815.3961,275.066099 1795.69067,286.413847 C1775.98525,297.761595 1760.92582,313.817451 1750.51238,334.581415 C1740.09894,355.345379 1734.89223,379.248081 1734.89223,406.289523 C1734.89223,446.207841 1746.2669,478.037871 1769.01626,501.779613 C1791.76561,525.521354 1823.40644,537.392225 1863.93874,537.392225 Z M2228.94464,536.392225 C2238.88503,536.392225 2246.86139,533.021513 2252.87373,526.280088 C2258.88606,519.538663 2261.89223,509.587036 2261.89223,496.425207 L2261.89223,496.425207 L2261.89223,370.505022 C2261.89223,357.824723 2261.09058,346.629143 2259.48729,336.918281 C2257.884,327.207419 2254.75759,318.41949 2250.10805,310.554494 C2242.73292,297.071645 2232.59212,286.798998 2219.68565,279.736553 C2206.77917,272.674108 2191.98883,269.142885 2175.31463,269.142885 C2164.25194,269.142885 2153.91072,270.547348 2144.29099,273.356275 C2134.67126,276.165202 2125.89325,280.378593 2117.95697,285.996447 C2110.02069,291.614301 2101.884,299.238531 2093.5469,308.869138 L2093.5469,308.869138 L2093.5469,211.359244 C2093.5469,198.197414 2090.6209,188.245787 2084.7689,181.504363 C2078.91689,174.762938 2070.7802,171.392225 2060.35882,171.392225 C2050.09778,171.392225 2042.12141,174.72281 2036.42974,181.38398 C2030.73806,188.04515 2027.89223,198.036904 2027.89223,211.359244 L2027.89223,211.359244 L2027.89223,496.425207 C2027.89223,523.069886 2038.71442,536.392225 2060.35882,536.392225 C2070.7802,536.392225 2078.91689,532.981385 2084.7689,526.159706 C2090.6209,519.338026 2093.5469,509.426526 2093.5469,496.425207 L2093.5469,496.425207 L2093.5469,409.50898 C2093.5469,384.469402 2095.31052,367.054055 2098.83775,357.262938 C2103.48729,345.70621 2110.50168,336.597261 2119.88092,329.936091 C2129.26016,323.274921 2139.80178,319.944336 2151.50579,319.944336 C2168.98164,319.944336 2180.84598,325.602318 2187.0988,336.918281 C2193.35163,348.234244 2196.47804,364.405638 2196.47804,385.432463 L2196.47804,385.432463 L2196.47804,496.425207 C2196.47804,523.069886 2207.30024,536.392225 2228.94464,536.392225 Z M2355.48173,634.392225 C2376.51703,634.392225 2387.03468,619.93678 2387.03468,591.025889 L2387.03468,591.025889 L2387.03468,492.247011 C2398.59607,506.863072 2410.75961,517.945581 2423.52531,525.494536 C2436.29101,533.04349 2452.06748,536.817968 2470.85474,536.817968 C2486.43049,536.817968 2501.00266,533.726109 2514.57123,527.54239 C2528.1398,521.358672 2539.90191,512.524789 2549.85755,501.04074 C2559.81319,489.556692 2567.64121,475.34217 2573.34162,458.397176 C2579.04202,441.452181 2581.89223,422.860872 2581.89223,402.623248 C2581.89223,375.157902 2576.95455,351.386725 2567.0792,331.309717 C2557.20385,311.232709 2543.75571,295.974184 2526.73477,285.53414 C2509.71384,275.094096 2491.08716,269.874074 2470.85474,269.874074 C2453.99438,269.874074 2438.90035,273.447781 2425.57264,280.595196 C2412.24493,287.74261 2399.39894,298.945581 2387.03468,314.204107 L2387.03468,314.204107 L2387.03468,306.253611 C2387.03468,294.368023 2384.10419,285.253061 2378.24321,278.908727 C2372.38223,272.564393 2364.79507,269.392225 2355.48173,269.392225 C2346.00781,269.392225 2338.54109,272.484085 2333.08154,278.667803 C2327.622,284.851521 2324.89223,294.207407 2324.89223,306.73546 L2324.89223,306.73546 L2324.89223,590.544041 C2324.89223,604.83887 2326.89941,615.720608 2330.91378,623.189255 C2334.92815,630.657902 2343.11747,634.392225 2355.48173,634.392225 Z M2455.58188,485.392225 C2437.23705,485.392225 2421.86924,478.143544 2409.47843,463.646182 C2397.08763,449.14882 2390.89223,428.844504 2390.89223,402.733233 C2390.89223,375.020043 2397.12786,354.034911 2409.59912,339.777837 C2422.07039,325.520763 2437.39797,318.392225 2455.58188,318.392225 C2467.00717,318.392225 2477.42671,321.716206 2486.8405,328.364168 C2496.25429,335.012129 2503.61636,344.543544 2508.92671,356.958412 C2514.23705,369.373281 2516.89223,384.231074 2516.89223,401.531794 C2516.89223,419.473281 2514.07613,434.771602 2508.44395,447.426758 C2502.81177,460.081914 2495.32901,469.573281 2485.99567,475.900858 C2476.66234,482.228436 2466.52441,485.392225 2455.58188,485.392225 Z M2667.47223,537.392225 C2677.12556,537.392225 2685.08956,534.052285 2691.36423,527.372406 C2697.63889,520.692526 2700.77623,510.672706 2700.77623,497.312946 L2700.77623,497.312946 L2700.77623,442.264297 C2700.77623,422.466099 2701.41978,405.685919 2702.70689,391.923757 C2703.994,378.161595 2706.32689,366.290724 2709.70556,356.311144 C2713.08423,346.331565 2717.83045,338.80664 2723.94423,333.73637 C2730.058,328.666099 2737.94156,326.130964 2747.59489,326.130964 C2754.674,326.130964 2762.83911,327.619853 2772.09023,330.597631 C2781.34134,333.575409 2787.17356,335.064297 2789.58689,335.064297 C2796.02245,335.064297 2802.01556,332.448682 2807.56623,327.217451 C2813.11689,321.986219 2815.89223,315.34658 2815.89223,307.298532 C2815.89223,295.870303 2809.37623,286.695529 2796.34423,279.774207 C2783.31223,272.852886 2769.878,269.392225 2756.04156,269.392225 C2742.20511,269.392225 2731.144,272.852886 2722.85823,279.774207 C2714.57245,286.695529 2706.48778,296.91655 2698.60423,310.43727 C2698.12156,296.91655 2695.46689,286.695529 2690.64023,279.774207 C2685.81356,272.852886 2677.93,269.392225 2666.98956,269.392225 C2645.59134,269.392225 2634.89223,284.200634 2634.89223,313.817451 L2634.89223,313.817451 L2634.89223,497.312946 C2634.89223,510.511745 2637.94911,520.491324 2644.06289,527.251685 C2650.17667,534.012045 2657.97978,537.392225 2667.47223,537.392225 Z M2961.09743,537.392225 C2979.63628,537.392225 2996.03914,534.982153 3010.306,530.16201 C3024.57286,525.341866 3036.42161,519.276518 3045.85224,511.965966 C3055.28288,504.655415 3062.33571,497.02352 3067.01072,489.070283 C3071.68574,481.117046 3074.02325,474.168005 3074.02325,468.223161 C3074.02325,461.474959 3071.92755,456.253137 3067.73616,452.557693 C3063.54476,448.862249 3058.06371,447.014528 3051.293,447.014528 C3045.00591,447.014528 3040.16968,448.460571 3036.78433,451.352657 C3028.56275,459.064887 3021.87264,465.170403 3016.714,469.669204 C3011.55536,474.168005 3005.9131,478.385631 2999.78722,482.322081 C2993.66133,486.258532 2987.33394,489.150619 2980.80504,490.99834 C2974.27614,492.846062 2967.0621,493.769923 2959.16294,493.769923 C2947.39479,493.769923 2936.6342,490.877837 2926.88115,485.093664 C2917.1281,479.309492 2909.30953,470.713568 2903.42546,459.305894 C2897.54139,447.898221 2894.51875,434.723161 2894.35754,419.780715 L2894.35754,419.780715 L3023.48471,419.780715 C3040.73391,419.780715 3054.11413,417.330475 3063.62537,412.429995 C3073.13661,407.529516 3077.89223,396.804695 3077.89223,380.255535 C3077.89223,362.421002 3073.29781,344.907813 3064.10899,327.715966 C3054.92016,310.52412 3041.09662,296.505535 3022.63837,285.660211 C3004.18012,274.814887 2982.0544,269.392225 2956.2612,269.392225 C2936.43269,269.392225 2918.37745,272.565487 2902.0955,278.91201 C2885.81355,285.258532 2872.11092,294.376638 2860.9876,306.266326 C2849.86429,318.156014 2841.4009,332.415607 2835.59743,349.045103 C2829.79396,365.674599 2826.89223,383.709971 2826.89223,403.151218 C2826.89223,444.443784 2838.66037,477.140427 2862.19666,501.241146 C2885.73294,525.341866 2918.69987,537.392225 2961.09743,537.392225 Z M3014.89223,381.392225 L2894.89223,381.392225 C2897.15485,359.299035 2903.57909,342.609071 2914.16495,331.322333 C2924.75081,320.035595 2938.28616,314.392225 2954.77101,314.392225 C2972.06394,314.392225 2986.00334,319.955547 2996.5892,331.08219 C3007.17505,342.208832 3013.27606,358.978844 3014.89223,381.392225 L3014.89223,381.392225 Z M3229.74799,537.392225 C3254.42748,537.392225 3275.38101,534.052285 3292.60857,527.372406 C3309.83614,520.692526 3322.85697,510.873907 3331.67107,497.91655 C3340.48517,484.959192 3344.89223,469.386219 3344.89223,451.197631 C3344.89223,439.125559 3341.5669,428.381415 3334.91626,418.965198 C3328.26562,409.548982 3318.48998,401.380213 3305.58934,394.458892 C3292.6887,387.537571 3276.0621,381.582015 3255.70953,376.592225 C3238.5621,372.40724 3225.10056,368.866099 3215.32492,365.968802 C3205.54928,363.071505 3197.77684,359.409643 3192.00761,354.983216 C3186.23838,350.55679 3183.35376,344.882916 3183.35376,337.961595 C3183.35376,330.39643 3187.28005,324.078712 3195.13261,319.008442 C3202.98517,313.938171 3212.84094,311.403036 3224.69992,311.403036 C3236.23838,311.403036 3245.37299,313.334568 3252.10376,317.197631 C3258.83453,321.060694 3264.68389,326.211445 3269.65184,332.649883 C3275.74158,340.376009 3281.15024,346.170604 3285.8778,350.033667 C3290.60537,353.89673 3296.33453,355.828261 3303.0653,355.828261 C3312.36017,355.828261 3319.53165,353.413847 3324.57973,348.585018 C3329.6278,343.756189 3332.15184,337.559192 3332.15184,329.994027 C3332.15184,323.072706 3329.78806,315.990424 3325.06049,308.74718 C3320.33293,301.503937 3313.4419,294.904538 3304.38742,288.948982 C3295.33293,282.993427 3284.03485,278.245078 3270.49319,274.703937 C3256.95152,271.162796 3241.6871,269.392225 3224.69992,269.392225 C3203.0653,269.392225 3184.59575,272.893126 3169.29126,279.894928 C3153.98678,286.89673 3142.40825,296.272706 3134.55569,308.022856 C3126.70312,319.773006 3122.77684,332.247481 3122.77684,345.446279 C3122.77684,360.254688 3127.02364,372.729162 3135.51723,382.869703 C3144.01082,393.010243 3155.34896,401.179012 3169.53165,407.376009 C3183.71434,413.573006 3202.10376,419.488321 3224.69992,425.121955 C3244.73197,429.950784 3259.11498,435.021054 3267.84896,440.332766 C3276.58293,445.644478 3280.94992,454.094928 3280.94992,465.684117 C3280.94992,473.249282 3276.74319,479.969403 3268.32973,485.844478 C3259.91626,491.719553 3249.13902,494.65709 3235.99799,494.65709 C3219.8121,494.65709 3207.03165,491.759793 3197.65665,485.965198 C3188.28165,480.170604 3180.22876,471.398231 3173.49799,459.648081 C3170.13261,453.531565 3166.60697,448.783216 3162.92107,445.403036 C3159.23517,442.022856 3153.94671,440.332766 3147.05569,440.332766 C3139.20312,440.332766 3132.71274,442.908141 3127.58453,448.058892 C3122.45633,453.209643 3119.89223,459.40664 3119.89223,466.649883 C3119.89223,477.595228 3123.89864,488.500333 3131.91146,499.365198 C3139.92428,510.230063 3152.34415,519.284117 3169.17107,526.52736 C3185.99799,533.770604 3206.1903,537.392225 3229.74799,537.392225 Z M3496.74799,537.392225 C3521.42748,537.392225 3542.38101,534.052285 3559.60857,527.372406 C3576.83614,520.692526 3589.85697,510.873907 3598.67107,497.91655 C3607.48517,484.959192 3611.89223,469.386219 3611.89223,451.197631 C3611.89223,439.125559 3608.5669,428.381415 3601.91626,418.965198 C3595.26562,409.548982 3585.48998,401.380213 3572.58934,394.458892 C3559.6887,387.537571 3543.0621,381.582015 3522.70953,376.592225 C3505.5621,372.40724 3492.10056,368.866099 3482.32492,365.968802 C3472.54928,363.071505 3464.77684,359.409643 3459.00761,354.983216 C3453.23838,350.55679 3450.35376,344.882916 3450.35376,337.961595 C3450.35376,330.39643 3454.28005,324.078712 3462.13261,319.008442 C3469.98517,313.938171 3479.84094,311.403036 3491.69992,311.403036 C3503.23838,311.403036 3512.37299,313.334568 3519.10376,317.197631 C3525.83453,321.060694 3531.68389,326.211445 3536.65184,332.649883 C3542.74158,340.376009 3548.15024,346.170604 3552.8778,350.033667 C3557.60537,353.89673 3563.33453,355.828261 3570.0653,355.828261 C3579.36017,355.828261 3586.53165,353.413847 3591.57973,348.585018 C3596.6278,343.756189 3599.15184,337.559192 3599.15184,329.994027 C3599.15184,323.072706 3596.78806,315.990424 3592.06049,308.74718 C3587.33293,301.503937 3580.4419,294.904538 3571.38742,288.948982 C3562.33293,282.993427 3551.03485,278.245078 3537.49319,274.703937 C3523.95152,271.162796 3508.6871,269.392225 3491.69992,269.392225 C3470.0653,269.392225 3451.59575,272.893126 3436.29126,279.894928 C3420.98678,286.89673 3409.40825,296.272706 3401.55569,308.022856 C3393.70312,319.773006 3389.77684,332.247481 3389.77684,345.446279 C3389.77684,360.254688 3394.02364,372.729162 3402.51723,382.869703 C3411.01082,393.010243 3422.34896,401.179012 3436.53165,407.376009 C3450.71434,413.573006 3469.10376,419.488321 3491.69992,425.121955 C3511.73197,429.950784 3526.11498,435.021054 3534.84896,440.332766 C3543.58293,445.644478 3547.94992,454.094928 3547.94992,465.684117 C3547.94992,473.249282 3543.74319,479.969403 3535.32973,485.844478 C3526.91626,491.719553 3516.13902,494.65709 3502.99799,494.65709 C3486.8121,494.65709 3474.03165,491.759793 3464.65665,485.965198 C3455.28165,480.170604 3447.22876,471.398231 3440.49799,459.648081 C3437.13261,453.531565 3433.60697,448.783216 3429.92107,445.403036 C3426.23517,442.022856 3420.94671,440.332766 3414.05569,440.332766 C3406.20312,440.332766 3399.71274,442.908141 3394.58453,448.058892 C3389.45633,453.209643 3386.89223,459.40664 3386.89223,466.649883 C3386.89223,477.595228 3390.89864,488.500333 3398.91146,499.365198 C3406.92428,510.230063 3419.34415,519.284117 3436.17107,526.52736 C3452.99799,533.770604 3473.1903,537.392225 3496.74799,537.392225 Z" id="benchpress" fill="#1E293B"></path>
            <path d="M514.991459,106.392225 C526.201397,106.392225 536.740205,110.758696 544.666768,118.685249 L544.666768,118.685249 L563.452216,137.470673 L577.167018,123.755888 C583.618127,117.304787 594.078464,117.304787 600.529573,123.755888 C606.981715,130.206989 606.981715,140.667313 600.529573,147.118414 L600.529573,147.118414 L586.814771,160.833199 L605.600219,179.618623 C613.52575,187.544144 617.892225,198.082938 617.892225,209.292862 C617.892225,224.905662 610.678368,233.994533 602.163568,242.545916 L601.497547,243.211275 C600.940509,243.765009 600.378632,244.317132 599.813537,244.869283 L599.133981,245.531983 C599.020499,245.642471 598.906914,245.752985 598.793239,245.86354 L597.768085,246.859983 C597.653987,246.970899 597.539839,247.081895 597.425651,247.192984 L596.740176,247.860736 C596.625888,247.972249 596.511588,248.083881 596.397289,248.195646 L595.711608,248.867923 C595.254631,249.317307 594.798081,249.769226 594.342786,250.22452 L594.342786,250.22452 L605.319377,261.202129 C621.681529,277.563228 621.682562,304.18641 605.32041,320.550607 C605.319223,320.550607 605.318159,320.55051 605.317205,320.550332 C605.308592,320.545266 605.308377,320.539546 605.306877,320.53621 L605.305158,320.534051 C605.296787,320.534911 605.285974,320.542892 605.261993,320.56512 L605.241417,320.584578 C605.222014,320.603212 605.196718,320.628136 605.16366,320.661161 L605.120143,320.704797 C605.072661,320.752554 605.012923,320.81302 604.937696,320.889328 L604.857186,320.971033 C604.284442,321.552478 602.975429,322.884369 599.972413,325.894437 L599.509136,326.35865 C599.429766,326.438155 599.349307,326.518738 599.267744,326.600413 L598.765005,327.103689 C598.506894,327.361997 598.238581,327.630397 597.959661,327.909281 C581.598541,344.27038 554.975326,344.271413 538.612141,327.908248 L538.612141,327.908248 L479.175826,268.472008 L385.755225,361.892225 L480.196476,456.33348 L539.632792,396.89724 C555.994944,380.534076 582.617127,380.533043 598.980311,396.89724 L606.338995,404.255914 C622.702179,420.618045 622.702179,447.24226 606.338995,463.603359 L595.362404,474.579936 L606.619837,485.837355 C622.983022,502.199486 622.983022,528.823701 606.619837,545.1848 L587.833356,563.971257 L601.656572,577.793422 C612.097291,588.232063 604.556886,605.994274 589.97581,605.994274 C585.74769,605.994274 581.520603,604.380466 578.295049,601.154915 L564.471833,587.333783 L545.685353,606.12024 C529.323201,622.482371 502.701018,622.483404 486.337833,606.12024 L475.0804,594.86282 C474.641625,595.301594 474.205392,595.742465 473.770898,596.184562 L472.795888,597.180983 L472.795888,597.180983 L472.148143,597.846477 C471.932447,598.068379 471.716936,598.290317 471.501509,598.51218 L470.855384,599.17744 C470.640028,599.399047 470.424656,599.620471 470.209169,599.841604 L469.562263,600.504021 C469.130629,600.944904 468.698134,601.384188 468.263977,601.821001 L467.611397,602.474261 C459.218059,610.831196 450.060876,618.111771 434.430565,618.111771 C414.777811,618.111771 405.20956,606.293701 397.397606,598.480723 C381.034421,582.118592 381.034421,555.494378 397.397606,539.133279 L456.833921,479.697038 L362.392225,385.255225 L267.95053,479.697038 L327.386845,539.133279 C343.75003,555.494378 343.75003,582.118592 327.386845,598.480723 C319.574891,606.293701 310.00664,618.111771 290.353885,618.111771 C274.723575,618.111771 265.566391,610.831196 257.173054,602.474261 L256.520473,601.821001 C256.086317,601.384188 255.653822,600.944904 255.222188,600.504021 L254.575281,599.841604 C254.359795,599.620471 254.144423,599.399047 253.929066,599.17744 L253.282942,598.51218 C253.067515,598.290317 252.852004,598.068379 252.636307,597.846477 L251.988563,597.180983 L251.988563,597.180983 L251.013552,596.184562 C250.579059,595.742465 250.142825,595.301594 249.704051,594.86282 L249.704051,594.86282 L238.446618,606.12024 C222.083433,622.483404 195.46125,622.482371 179.099098,606.12024 L179.099098,606.12024 L160.312617,587.333783 L146.489402,601.154915 C143.263848,604.380466 139.03676,605.994274 134.808641,605.994274 C120.227565,605.994274 112.68716,588.232063 123.127879,577.793422 L123.127879,577.793422 L136.951094,563.971257 L118.164614,545.1848 C101.801429,528.823701 101.801429,502.199486 118.164614,485.837355 L118.164614,485.837355 L129.422047,474.579936 L118.445456,463.603359 C102.082271,447.24226 102.082271,420.618045 118.445456,404.255914 L118.445456,404.255914 L125.80414,396.89724 C142.167324,380.533043 168.789507,380.534076 185.151659,396.89724 L185.151659,396.89724 L244.587974,456.33348 L339.029225,361.892225 L245.608624,268.472008 L186.172309,327.908248 C169.809125,344.271413 143.185909,344.27038 126.82479,327.909281 C126.54587,327.630397 126.277557,327.361997 126.019446,327.103689 L125.516707,326.600413 C125.435144,326.518738 125.354685,326.438155 125.275315,326.35865 L124.812038,325.894437 C121.809021,322.884369 120.500009,321.552478 119.927264,320.971033 L119.846755,320.889328 C119.771528,320.81302 119.71179,320.752554 119.664308,320.704797 L119.620791,320.661161 C119.587732,320.628136 119.562437,320.603212 119.543033,320.584578 L119.522458,320.56512 C119.498476,320.542892 119.487664,320.534911 119.482359,320.533755 L119.479293,320.534051 C119.476074,320.539546 119.475858,320.545266 119.471793,320.548398 C119.466291,320.55051 119.465228,320.550607 119.464041,320.550607 C103.101889,304.18641 103.102921,277.563228 119.465074,261.202129 L130.441665,250.22452 C129.98637,249.769226 129.52982,249.317307 129.072843,248.867923 L128.387161,248.195646 C128.272862,248.083881 128.158563,247.972249 128.044275,247.860736 L127.358799,247.192984 C127.244612,247.081895 127.130463,246.970899 127.016365,246.859983 L125.991212,245.86354 C125.877537,245.752985 125.763952,245.642471 125.65047,245.531983 L124.970914,244.869283 C124.405818,244.317132 123.843942,243.765009 123.286904,243.211275 L122.620883,242.545916 C114.106083,233.994533 106.892225,224.905662 106.892225,209.292862 C106.892225,198.082938 111.258701,187.544144 119.184231,179.618623 L137.96968,160.833199 L124.254878,147.118414 C117.802736,140.667313 117.802736,130.206989 124.254878,123.755888 C130.705987,117.304787 141.166324,117.304787 147.617433,123.755888 L161.332235,137.470673 L180.117683,118.685249 C188.044246,110.758696 198.583054,106.392225 209.792992,106.392225 C229.733816,106.392225 238.802333,118.019282 250.724701,129.941635 L261.701292,118.965058 C278.062412,102.601894 304.686659,102.600861 321.050877,118.96609 L328.407495,126.323732 C344.77068,142.685864 344.77068,169.310078 328.407495,185.671177 L268.97118,245.107417 L362.392225,338.529225 L455.813271,245.107417 L396.376956,185.671177 C380.013771,169.310078 380.013771,142.685864 396.376956,126.323732 L396.376956,126.323732 L403.733574,118.96609 C420.097791,102.600861 446.722039,102.601894 463.083159,118.965058 L463.083159,118.965058 L474.05975,129.941635 C485.982118,118.019282 495.050635,106.392225 514.991459,106.392225 Z M152.40051,498.324489 L141.526137,509.198848 C138.037293,512.687688 138.039358,518.335499 141.526137,521.822274 C141.829405,522.125541 142.194173,522.490309 142.615504,522.91164 L146.758938,527.055069 C147.095589,527.391719 147.443296,527.739425 147.801442,528.097571 L151.289954,531.586078 C151.705182,532.001306 152.128998,532.425121 152.560785,532.856908 L168.084359,548.380462 C168.615521,548.911624 169.148177,549.444279 169.681709,549.97781 L179.246636,559.542725 C179.76847,560.064558 180.287478,560.583566 180.803044,561.099131 L183.097769,563.393854 C183.601619,563.897703 184.1011,564.397184 184.595597,564.891679 L187.497817,567.793896 C188.441993,568.738071 189.361293,569.65737 190.250781,570.546857 L197.317985,577.614052 C197.817631,578.113697 198.292179,578.588244 198.739546,579.035611 L202.461653,582.757714 C204.147739,584.443797 206.388281,585.370988 208.772342,585.370988 C213.55182,585.370988 214.705132,583.136643 225.958435,571.882322 L225.958435,571.882322 L152.40051,498.324489 Z M572.383941,498.324489 L498.826016,571.882322 C510.079319,583.136643 511.23263,585.370988 516.012109,585.370988 C518.39617,585.370988 520.636712,584.443797 522.322797,582.757714 L526.044905,579.035611 C526.492272,578.588244 526.96682,578.113697 527.466466,577.614052 L534.53367,570.546857 C535.423157,569.65737 536.342457,568.738071 537.286633,567.793896 L540.188854,564.891679 C540.68335,564.397184 541.182832,563.897703 541.686681,563.393854 L543.981407,561.099131 C544.496973,560.583566 545.015981,560.064558 545.537815,559.542725 L555.102742,549.97781 C555.636274,549.444279 556.168929,548.911624 556.700092,548.380462 L572.223665,532.856908 C572.655453,532.425121 573.079269,532.001306 573.494497,531.586078 L576.983009,528.097571 C577.341155,527.739425 577.688862,527.391719 578.025512,527.055069 L582.168947,522.91164 C582.590278,522.490309 582.955046,522.125541 583.258314,521.822274 C586.745093,518.335499 586.747158,512.687688 583.258314,509.198848 L572.383941,498.324489 Z M155.476351,417.649589 C150.845553,417.649589 149.424822,419.999574 141.806979,427.617407 C138.327427,431.099019 138.327427,436.760253 141.806979,440.240833 L141.806979,440.240833 L284.043197,582.476872 C287.524814,585.954354 293.186055,585.956419 296.666639,582.476872 L296.666639,582.476872 L304.025322,575.118197 C307.504874,571.637618 307.504874,565.975352 304.02429,562.494772 L304.02429,562.494772 L161.788071,420.258733 C160.048295,418.519992 157.762323,417.649589 155.476351,417.649589 Z M569.3081,417.649589 C567.022128,417.649589 564.736155,418.519992 562.99638,420.258733 L420.760161,562.494772 C417.279577,565.975352 417.279577,571.637618 420.759129,575.118197 L428.117812,582.476872 C431.598396,585.956419 437.259637,585.954354 440.741253,582.476872 L582.977472,440.240833 C586.457023,436.760253 586.457023,431.099019 582.977472,427.617407 C575.359629,419.999574 573.938898,417.649589 569.3081,417.649589 Z M433.408883,139.717407 C428.778085,139.717407 427.359419,142.065327 419.740543,149.684193 C416.259959,153.166838 416.259959,158.828071 419.739511,162.308651 L419.739511,162.308651 L561.974697,304.54469 C565.455281,308.022172 571.116522,308.024237 574.598138,304.54469 L574.598138,304.54469 L581.955789,297.187048 C585.436373,293.706469 585.436373,288.044203 581.956822,284.56259 L581.956822,284.56259 L439.720603,142.326551 C437.980827,140.58781 435.694855,139.717407 433.408883,139.717407 Z M291.375568,139.717407 C289.089596,139.717407 286.803623,140.58781 285.063848,142.326551 L142.827629,284.56259 C139.348078,288.044203 139.348078,293.706469 142.828662,297.187048 L150.186313,304.54469 C153.667929,308.024237 159.32917,308.022172 162.809754,304.54469 L305.04494,162.308651 C308.524491,158.828071 308.524491,153.166838 305.043907,149.684193 C297.425032,142.065327 296.006366,139.717407 291.375568,139.717407 Z M521.30318,142.046742 C517.812271,138.557902 512.16755,138.557902 508.678706,142.046742 L508.678706,142.046742 L497.806398,152.921101 L571.364323,226.478934 L582.237664,215.605607 C585.726508,212.116767 585.726508,206.471022 582.237664,202.982182 C581.906332,202.650851 581.042288,201.786797 579.754351,200.498844 L578.012323,198.756791 C577.529431,198.273892 577.012306,197.75676 576.463886,197.208332 L575.326191,196.07062 C575.129911,195.874337 574.930371,195.674794 574.727681,195.472101 L572.821335,193.565727 C572.380105,193.124489 571.927576,192.671954 571.464622,192.208992 L567.810567,188.55488 C567.30092,188.045225 566.783023,187.52732 566.257747,187.002036 L564.66065,185.404913 C564.121485,184.865739 563.575811,184.320057 563.024498,183.768735 L540.577171,161.321043 C540.02638,160.770243 539.481268,160.225122 538.942704,159.68655 L537.347533,158.091352 C536.822938,157.566749 536.305764,157.049566 535.79688,156.540673 L532.850022,153.593768 C532.141661,152.885395 531.455871,152.199593 530.795589,151.539301 L528.894209,149.637889 C528.6921,149.435777 528.493152,149.236826 528.297474,149.041145 L527.16351,147.907162 C526.617016,147.360659 526.101907,146.845542 525.621121,146.364749 L523.171789,143.915378 C522.950628,143.694214 522.747334,143.490916 522.562777,143.306356 L521.861682,142.605251 C521.672101,142.415667 521.527616,142.27118 521.431165,142.174728 Z M203.481271,142.046742 L203.353286,142.174728 C203.256835,142.27118 203.11235,142.415667 202.922769,142.605251 L202.221674,143.306356 C202.037117,143.490916 201.833823,143.694214 201.612662,143.915378 L199.16333,146.364749 C198.682544,146.845542 198.167435,147.360659 197.620941,147.907162 L196.486977,149.041145 C196.291299,149.236826 196.092351,149.435777 195.890242,149.637889 L193.988862,151.539301 C193.32858,152.199593 192.642789,152.885395 191.934428,153.593768 L188.987571,156.540673 C188.478687,157.049566 187.961512,157.566749 187.436918,158.091352 L185.841746,159.68655 C185.303183,160.225122 184.758071,160.770243 184.207279,161.321043 L161.759953,183.768735 C161.20864,184.320057 160.662966,184.865739 160.123801,185.404913 L158.526704,187.002036 C158.001427,187.52732 157.483531,188.045225 156.973884,188.55488 L153.319829,192.208992 C152.856874,192.671954 152.404346,193.124489 151.963115,193.565727 L150.05677,195.472101 C149.85408,195.674794 149.65454,195.874337 149.45826,196.07062 L148.320565,197.208332 C147.772145,197.75676 147.25502,198.273892 146.772128,198.756791 L145.030099,200.498844 C143.742163,201.786797 142.878119,202.650851 142.546787,202.982182 C139.057943,206.471022 139.057943,212.116767 142.546787,215.605607 L153.420127,226.478934 L226.978053,152.921101 L216.105745,142.046742 C212.616901,138.557902 206.97218,138.557902 203.481271,142.046742 Z" id="Combined-Shape" fill="#10B981" transform="translate(362.392225, 362.392225) rotate(-315.000000) translate(-362.392225, -362.392225) "></path>
        </g>
    </g>
</svg>