<?xml version="1.0" encoding="UTF-8"?>
<svg width="408px" height="408px" viewBox="0 0 408 408" version="1.1" xmlns="http://www.w3.org/2000/svg" xmlns:xlink="http://www.w3.org/1999/xlink">
    <title>Group</title>
    <g id="Page-1" stroke="none" stroke-width="1" fill="none" fill-rule="evenodd">
        <g id="Group">
            <rect id="Rectangle" fill="#F1F5F9" x="0" y="0" width="408" height="408"></rect>
            <g id="man" transform="translate(128.000000, 91.000000)" fill="#CBD5E1" fill-rule="nonzero">
                <path d="M153,199.986571 L153,222.233827 C153,224.313696 151.308495,226 149.222211,226 C147.135926,226 145.444421,224.313696 145.444421,222.233827 L145.444421,199.986571 C145.444421,182.664529 131.383961,168.646361 114.007074,168.646832 C105.785188,168.646832 98.3254701,164.471088 94.0513736,157.476363 C92.9662036,155.700141 93.5305109,153.382532 95.3126831,152.300699 C97.094383,151.218395 99.418668,151.781438 100.50431,153.55813 C103.395264,158.289856 108.442862,161.114486 114.007074,161.114486 C135.557946,161.113544 153,178.500083 153,199.986571 L153,199.986571 Z M87.074741,162.233981 C87.5191035,164.266302 86.2266272,166.272731 84.1880376,166.715727 C74.2458403,168.875156 64.1341146,166.713373 56.0831731,161.235003 C48.1129818,169.74985 37.5833382,168.646832 38.9929259,168.646832 C21.6174556,168.646361 7.55557888,182.663116 7.55557888,199.986571 L7.55557888,222.233827 C7.55557888,224.313696 5.86407365,226 3.77778944,226 C1.69150522,226 0,224.313696 0,222.233827 L0,199.986571 C0,178.502437 17.4387483,161.114486 38.9919815,161.114486 C47.710175,161.114486 54.7779468,154.111758 54.7779468,145.418018 L54.7779468,144.426102 C38.2883682,136.565628 26.7141658,120.047663 26.0086636,100.812405 C19.2228093,99.1858885 14.1667104,93.1308236 14.1667104,85.9266051 L14.1667104,66.4022928 C13.9603486,56.8456284 15.3836308,32.9101857 32.8894348,16.0876318 C54.5054738,-4.68563775 89.1704697,-3.36606483 114.660159,8.86693633 C117.144528,10.0603424 117.521835,13.4065873 115.45869,15.1394977 C128.371646,18.2795446 139.506681,26.1932159 146.660397,37.5190401 C147.029676,38.1023262 147.7059,39.017977 147.529289,40.4787814 C147.419733,41.3878415 147.148204,42.1570823 146.445535,42.8679475 C141.841354,47.5229375 139.305986,53.6914584 139.305986,60.2375381 L139.305986,85.9275467 C139.305986,88.0074158 137.61448,89.6937198 135.528196,89.6937198 C133.441912,89.6937198 131.750407,88.0074158 131.750407,85.9275467 L131.750407,60.2375381 C131.750407,52.6877732 134.33772,45.5216873 139.089707,39.7650916 C131.84674,29.4382448 120.546428,22.7965985 107.766166,21.4323023 L101.126229,20.7233202 C97.2436057,20.3090411 96.4819089,14.9766107 100.09017,13.4960339 L103.11004,12.2564922 C63.7804191,-1.41236251 21.721817,13.7752015 21.721817,66.3613356 L21.721817,85.9266051 C21.721817,88.9150635 23.4482668,91.5123107 25.9718302,92.8168189 L25.9718302,68.4011892 C25.9718302,53.8647023 37.8350334,42.0379771 52.4163562,42.0379771 L100.583172,42.0379771 C115.164494,42.0379771 127.027698,53.8637608 127.027698,68.3997768 L127.027698,99.2367318 C127.027698,131.990198 94.9221541,156.868596 62.2527755,147.28039 C62.0402748,149.967555 61.369245,152.560565 60.2760471,154.970916 C66.6312334,159.321787 74.6566749,161.076824 82.5791715,159.355683 C84.6177612,158.913158 86.6303785,160.20166 87.074741,162.233981 L87.074741,162.233981 Z M76.4997639,141.790722 C100.195004,141.790722 119.472119,122.572882 119.472119,98.9505027 L119.472119,68.3997768 C119.472119,58.017379 110.998537,49.5703234 100.583172,49.5703234 L52.4163562,49.5703234 C42.0009907,49.5703234 33.527409,58.0178498 33.527409,68.4011892 L33.527409,98.9505027 C33.527409,122.572882 52.8045241,141.790722 76.4997639,141.790722 Z M114.749882,206.698363 L103.416514,206.698363 C101.330229,206.698363 99.6387242,208.384667 99.6387242,210.464536 C99.6387242,212.544405 101.330229,214.230709 103.416514,214.230709 L114.749882,214.230709 C116.836166,214.230709 118.527671,212.544405 118.527671,210.464536 C118.527671,208.384667 116.836166,206.698363 114.749882,206.698363 Z" id="Shape"></path>
            </g>
        </g>
    </g>
</svg>