<?xml version="1.0" encoding="UTF-8"?>
<svg width="408px" height="408px" viewBox="0 0 408 408" version="1.1" xmlns="http://www.w3.org/2000/svg" xmlns:xlink="http://www.w3.org/1999/xlink">
    <title>Group</title>
    <g id="Page-1" stroke="none" stroke-width="1" fill="none" fill-rule="evenodd">
        <g id="Group">
            <rect id="Rectangle" fill="#F1F5F9" x="0" y="0" width="408" height="408"></rect>
            <g id="box" transform="translate(88.000000, 90.000000)" fill="#CBD5E1" fill-rule="nonzero">
                <path d="M106.623,104.820976 L3.123,61.1790211 C1.64025,60.5535173 0,61.644093 0,63.2556214 L0,179.928745 C0,182.876904 1.79235,185.528535 4.5261,186.623167 L104.91435,226.836569 C106.39215,227.428724 108,226.338599 108,224.744646 L108,106.897577 C108,105.990867 107.4573,105.172935 106.623,104.820976 Z" id="Path"></path>
                <path d="M116.374778,92.8231 L216.620282,50.6079352 C218.422144,49.8493737 218.470392,47.3130183 216.698741,46.4863576 L118.550901,0.676819954 C116.61692,-0.225606651 114.38308,-0.225606651 112.449099,0.676819954 L14.3012589,46.4863576 C12.5296079,47.3130183 12.577856,49.8493737 14.3797184,50.6079352 L114.625222,92.8231 C115.184358,93.0589667 115.815642,93.0589667 116.374778,92.8231 Z" id="Path"></path>
                <path d="M123,106.897577 L123,224.744646 C123,226.338599 124.60785,227.428724 126.08565,226.836569 L226.4739,186.623167 C229.2072,185.528085 231,182.876904 231,179.928745 L231,63.2556214 C231,61.644093 229.35975,60.5535173 227.877,61.1790211 L124.377,104.820976 C123.5427,105.172935 123,105.990867 123,106.897577 Z" id="Path"></path>
            </g>
        </g>
    </g>
</svg>